#!OML:ASF I:\Actors\actors\Patient Classification 2\Patient 1\Session 1\actor1.ASF
:FULLY-SPECIFIED
:DEGREES
644
root -0.718332 18.6305 5.89261 0.655897 -5.56922 -2.43328
lowerback 2.28458 0.919503 3.12703
upperback -2.35152 1.39918 1.41339
thorax -3.66484 0.632733 -0.371276
lowerneck -9.80907 -1.67979 -3.93501
upperneck 24.0558 -2.24339 2.59797
head 9.23601 -1.13525 1.31613
rclavicle -2.45623e-014 4.77083e-015
rhumerus -50.3502 -8.65969 -81.5265
rradius 48.8473
rwrist 13.1929
rhand -5.45576 -37.6627
rfingers 7.12502
rthumb 20.3555 -66.6159
lclavicle -2.45623e-014 4.77083e-015
lhumerus -44.1947 3.22377 88.9288
lradius 43.3885
lwrist 4.02943
lhand -12.4316 -24.8384
lfingers 7.12502
lthumb 13.641 4.6946
rfemur 0 0 0
rtibia 0
rfoot 0 0
rtoes 0
lfemur -0.56024 -5.4227 -12.3544
ltibia 20.7379
lfoot -26.2774 16.6035
ltoes -54.0854
645
root -0.717623 18.632 5.88788 0.71228 -5.57623 -2.34149
lowerback 2.25298 0.928441 3.04522
upperback -2.36849 1.4059 1.38024
thorax -3.6652 0.637682 -0.359627
lowerneck -9.76487 -1.6664 -3.94152
upperneck 24.0118 -2.23042 2.62429
head 9.21211 -1.12714 1.32775
rclavicle 7.0817e-015 -4.37326e-015
rhumerus -49.9794 -8.44829 -81.6545
rradius 48.7904
rwrist 13.1364
rhand -5.59207 -37.5515
rfingers 7.12502
rthumb 20.2245 -66.5186
lclavicle 7.0817e-015 -4.37326e-015
lhumerus -44.0626 3.0163 89.1757
lradius 43.6461
lwrist 4.28758
lhand -12.463 -24.8498
lfingers 7.12502
lthumb 13.6108 4.68521
rfemur 0 0 0
rtibia 0
rfoot 0 0
rtoes 0
lfemur -0.645657 -5.39453 -12.452
ltibia 20.7375
lfoot -26.2494 16.6089
ltoes -54.1138
646
root -0.718417 18.6342 5.88423 0.776723 -5.56921 -2.29036
lowerback 2.2061 0.93914 2.98966
upperback -2.37938 1.41578 1.36434
thorax -3.65045 0.64399 -0.344706
lowerneck -9.80312 -1.66716 -3.93566
upperneck 24.0231 -2.2282 2.61229
head 9.22302 -1.1265 1.32271
rclavicle -9.16894e-015 -7.95139e-015
rhumerus -49.6396 -8.31102 -81.7169
rradius 48.6817
rwrist 13.1704
rhand -5.76784 -37.2547
rfingers 7.12502
rthumb 20.0555 -66.2396
lclavicle -9.16894e-015 -7.95139e-015
lhumerus -43.9711 2.80335 89.4448
lradius 43.8715
lwrist 4.50846
lhand -12.4643 -24.966
lfingers 7.12502
lthumb 13.6095 4.56912
rfemur 0 0 0
rtibia 0
rfoot 0 0
rtoes 0
lfemur -0.739054 -5.3775 -12.4963
ltibia 20.7399
lfoot -26.2044 16.6229
ltoes -54.1519
647
root -0.719404 18.6359 5.88111 0.822769 -5.55018 -2.32906
lowerback 2.16064 0.952377 3.03324
upperback -2.36408 1.43285 1.36888
thorax -3.60757 0.65207 -0.364273
lowerneck -9.86077 -1.68861 -3.93886
upperneck 24.025 -2.2519 2.59864
head 9.23543 -1.13877 1.31564
rclavicle -3.85145e-015 1.03368e-014
rhumerus -49.2683 -8.179 -81.7765
rradius 48.4864
rwrist 13.1992
rhand -6.00044 -36.7134
rfingers 7.12502
rthumb 19.8319 -65.7216
lclavicle -3.85145e-015 1.03368e-014
lhumerus -43.8735 2.5943 89.7111
lradius 44.0116
lwrist 4.62231
lhand -12.5265 -25.213
lfingers 7.12502
lthumb 13.5496 4.32608
rfemur 0 0 0
rtibia 0
rfoot 0 0
rtoes 0
lfemur -0.812655 -5.37888 -12.4395
ltibia 20.7544
lfoot -26.1719 16.6248
ltoes -54.1501
648
root -0.719232 18.6369 5.87935 0.869831 -5.52857 -2.38432
lowerback 2.09647 0.958475 3.09827
upperback -2.34527 1.44036 1.37874
thorax -3.55041 0.655144 -0.389446
lowerneck -9.8816 -1.70015 -3.95576
upperneck 23.9955 -2.26495 2.606
head 9.22988 -1.14527 1.31935
rclavicle -8.22472e-015 7.15625e-015
rhumerus -48.8431 -8.03192 -81.8386
rradius 48.1413
rwrist 13.3076
rhand -6.14013 -35.9734
rfingers 7.12502
rthumb 19.6976 -64.9954
lclavicle -8.22472e-015 7.15625e-015
lhumerus -43.803 2.40033 89.96
lradius 44.0674
lwrist 4.65423
lhand -12.7611 -25.7376
lfingers 7.12502
lthumb 13.3235 3.81644
rfemur 0 0 0
rtibia 0
rfoot 0 0
rtoes 0
lfemur -0.883853 -5.3743 -12.3706
ltibia 20.7847
lfoot -26.1761 16.599
ltoes -54.1087
649
root -0.719348 18.6379 5.87845 0.918057 -5.49721 -2.40468
lowerback 2.04447 0.961325 3.13539
upperback -2.34202 1.44283 1.36948
thorax -3.51651 0.655768 -0.418818
lowerneck -9.89266 -1.71837 -3.97871
upperneck 23.9623 -2.28864 2.62181
head 9.22176 -1.15649 1.32585
rclavicle 9.24349e-015 -1.27222e-014
rhumerus -48.4658 -7.90679 -81.8982
rradius 47.7297
rwrist 13.5264
rhand -6.49222 -35.5799
rfingers 7.12502
rthumb 19.3591 -64.6363
lclavicle 9.24349e-015 -1.27222e-014
lhumerus -43.7852 2.19453 90.1934
lradius 44.0388
lwrist 4.48697
lhand -13.2324 -26.7009
lfingers 7.12502
lthumb 12.8691 2.8823
rfemur 0 0 0
rtibia 0
rfoot 0 0
rtoes 0
lfemur -0.961425 -5.383 -12.3411
ltibia 20.8184
lfoot -26.1953 16.5951
ltoes -54.0843
650
root -0.720877 18.6391 5.8782 0.952796 -5.47869 -2.40631
lowerback 1.9964 0.963581 3.14578
upperback -2.33756 1.44348 1.35536
thorax -3.48408 0.656119 -0.438221
lowerneck -9.93502 -1.74159 -4.01038
upperneck 23.9745 -2.31301 2.61997
head 9.23542 -1.17061 1.32771
rclavicle 1.58158e-014 1.33186e-014
rhumerus -48.1475 -7.85021 -81.9198
rradius 47.3052
rwrist 13.8113
rhand -6.91039 -35.392
rfingers 7.12502
rthumb 18.957 -64.4882
lclavicle 1.58158e-014 1.33186e-014
lhumerus -43.7784 2.03325 90.4029
lradius 43.8787
lwrist 3.95186
lhand -13.9095 -28.0022
lfingers 7.12502
lthumb 12.2163 1.62107
rfemur 0 0 0
rtibia 0
rfoot 0 0
rtoes 0
lfemur -1.02202 -5.42754 -12.3347
ltibia 20.8478
lfoot -26.2106 16.6465
ltoes -54.1281
651
root -0.723086 18.6401 5.87861 0.995664 -5.45669 -2.42429
lowerback 1.90891 0.958586 3.17233
upperback -2.31912 1.43284 1.34195
thorax -3.41489 0.651071 -0.464522
lowerneck -9.99153 -1.74164 -3.99717
upperneck 23.9898 -2.30452 2.58297
head 9.25063 -1.16897 1.31339
rclavicle 2.73329e-015 4.17448e-015
rhumerus -47.8302 -7.82669 -81.9481
rradius 46.866
rwrist 14.0636
rhand -7.13455 -34.8627
rfingers 7.12502
rthumb 18.7414 -63.9799
lclavicle 2.73329e-015 4.17448e-015
lhumerus -43.7494 1.91215 90.5756
lradius 43.6011
lwrist 2.97987
lhand -14.6446 -29.4078
lfingers 7.12502
lthumb 11.5075 0.256368
rfemur 0 0 0
rtibia 0
rfoot 0 0
rtoes 0
lfemur -1.08297 -5.46125 -12.3036
ltibia 20.8693
lfoot -26.2216 16.6417
ltoes -54.1425
652
root -0.724635 18.6407 5.87924 1.05407 -5.4169 -2.44203
lowerback 1.79511 0.9486 3.22404
upperback -2.29356 1.41438 1.31014
thorax -3.32273 0.641669 -0.522897
lowerneck -10.0616 -1.74615 -3.92358
upperneck 23.9927 -2.3043 2.50782
head 9.26312 -1.16972 1.27463
rclavicle 5.15598e-015 9.93923e-015
rhumerus -47.514 -7.79036 -82.0399
rradius 46.4199
rwrist 14.2633
rhand -7.5305 -34.4057
rfingers 7.12502
rthumb 18.3605 -63.5592
lclavicle 5.15598e-015 9.93923e-015
lhumerus -43.7408 1.72709 90.7366
lradius 43.3087
lwrist 1.79296
lhand -15.3481 -30.6605
lfingers 7.12502
lthumb 10.829 -0.959648
rfemur 0 0 0
rtibia 0
rfoot 0 0
rtoes 0
lfemur -1.15865 -5.41683 -12.2589
ltibia 20.8766
lfoot -26.1926 16.5526
ltoes -54.0885
653
root -0.726053 18.6417 5.87982 1.1111 -5.36967 -2.42276
lowerback 1.68268 0.937615 3.23169
upperback -2.27001 1.39313 1.2759
thorax -3.23446 0.631922 -0.559137
lowerneck -10.1294 -1.76407 -3.88657
upperneck 23.9903 -2.31642 2.43585
head 9.27438 -1.1792 1.24177
rclavicle 1.2424e-017 1.03368e-014
rhumerus -47.222 -7.79938 -82.1082
rradius 45.9651
rwrist 14.5579
rhand -8.08628 -34.3188
rfingers 7.12502
rthumb 17.8258 -63.5218
lclavicle 1.2424e-017 1.03368e-014
lhumerus -43.7392 1.54533 90.9053
lradius 42.9918
lwrist 0.63885
lhand -15.8955 -31.5917
lfingers 7.12502
lthumb 10.3009 -1.86398
rfemur 0 0 0
rtibia 0
rfoot 0 0
rtoes 0
lfemur -1.23318 -5.3624 -12.2546
ltibia 20.8704
lfoot -26.1348 16.4826
ltoes -54.0279
654
root -0.727466 18.6425 5.88151 1.14257 -5.30736 -2.38146
lowerback 1.57964 0.916318 3.20772
upperback -2.24738 1.35761 1.24023
thorax -3.15361 0.615704 -0.578853
lowerneck -10.1472 -1.76547 -3.92507
upperneck 23.9602 -2.31195 2.44698
head 9.26771 -1.17915 1.25237
rclavicle 5.86415e-015 -1.80894e-014
rhumerus -46.9846 -7.84687 -82.1455
rradius 45.5278
rwrist 14.9435
rhand -8.47304 -34.3293
rfingers 7.12502
rthumb 17.4536 -63.5658
lclavicle 5.86415e-015 -1.80894e-014
lhumerus -43.7352 1.40791 91.0615
lradius 42.6117
lwrist -0.257082
lhand -16.2663 -32.266
lfingers 7.12502
lthumb 9.94322 -2.52085
rfemur 0 0 0
rtibia 0
rfoot 0 0
rtoes 0
lfemur -1.27874 -5.34347 -12.2804
ltibia 20.8598
lfoot -26.1211 16.421
ltoes -53.9601
